<svg xmlns="http://www.w3.org/2000/svg" xml:space="preserve" width="2000" height="82" data-id="lg_Cip0nSE5BuRLMB9W0l" data-version="1" viewBox="0 0 2000 82"><g data-padding="20"><g transform="translate(10 8.454)scale(.79381)"><rect width="85.805" height="55.37" x="796.361" y="-374.137" fill="none" rx="0" ry="0" transform="translate(413.3 400.41)"/><g transform="matrix(.9 0 0 .9 400 386.98)"><linearGradient id="a" x1="0" x2="1" y1="0" y2="0" gradientUnits="objectBoundingBox"><stop offset="0%" stop-color="#f00b51"/><stop offset="100%" stop-color="#730062"/></linearGradient><path fill="url(#a)" d="m971.955-291.346-.26-.03c-24.065-6.004-38.735-30.348-32.8-54.43 2.9-11.66 10.15-21.48 20.43-27.68s22.36-8.01 34.01-5.12c24.065 6.004 38.735 30.348 32.8 54.43a45 45 0 0 1-31.85 32.56 1.1 1.1 0 1 1-.58-2.12 42.8 42.8 0 0 0 30.3-30.97c5.645-22.906-8.31-46.061-31.2-51.77a42.5 42.5 0 0 0-32.35 4.87 42.5 42.5 0 0 0-19.43 26.32c-5.652 22.91 8.304 46.072 31.2 51.78a1.1 1.1 0 0 1-.27 2.16m8.8-.35a1.755 1.755 0 1 0 3.51 0 1.75 1.75 0 0 0-3.5 0m-10.25-35.07q-.3 1.6-.63 3.2-.34 1.6-.63 3.22-.3 1.61-.3 3.34 0 1.87.6 3.47.58 1.6 1.68 2.79 1.11 1.18 2.73 1.84t3.64.66h1.7v-1.29a.6.6 0 0 0-.27-.52 1 1 0 0 0-.5-.19h-1.02q-1.32 0-2.42-.46c-1.1-.46-1.35-.75-1.87-1.32a6 6 0 0 1-1.23-2.1 8 8 0 0 1-.45-2.73q0-1.73.28-3.38.28-1.67.61-3.3.34-1.63.62-3.24t.27-3.25a5.4 5.4 0 0 0-1.4-3.74 5.8 5.8 0 0 0-3.15-1.86 6.3 6.3 0 0 0 3.15-1.88 5.6 5.6 0 0 0 1.4-3.75q0-1.63-.27-3.25c-.27-1.62-.4-2.15-.62-3.23a76 76 0 0 1-.61-3.27q-.28-1.66-.28-3.42 0-1.5.45-2.74.44-1.23 1.23-2.09a5 5 0 0 1 1.87-1.32q1.1-.47 2.42-.47h1.01a1 1 0 0 0 .51-.18.6.6 0 0 0 .27-.52v-1.3h-1.7q-2.02 0-3.64.66a7.7 7.7 0 0 0-4.42 4.64 10 10 0 0 0-.58 3.47q0 1.72.29 3.34.3 1.62.63 3.22.34 1.6.63 3.2.3 1.6.3 3.29 0 1.02-.35 1.86t-.97 1.48c-.62.63-.92.74-1.52.97a6 6 0 0 1-1.97.34v1.87q1.08 0 1.97.34a4.2 4.2 0 0 1 2.5 2.45 5 5 0 0 1 .33 1.86q0 1.7-.3 3.3m24.08-5.15a4.3 4.3 0 0 1 2.47-2.45 5 5 0 0 1 1.96-.34v-1.87q-1.08 0-1.96-.34a4.3 4.3 0 0 1-2.47-2.45 5 5 0 0 1-.34-1.86q0-1.69.29-3.3.3-1.59.63-3.2.34-1.6.63-3.2.3-1.62.3-3.35 0-1.87-.6-3.47-.57-1.6-1.68-2.79a8 8 0 0 0-2.73-1.84 10 10 0 0 0-3.64-.66h-1.7v1.29q0 .34.25.52c.25.18.34.19.52.19h1.02q1.33 0 2.41.46 1.1.46 1.88 1.32.79.85 1.23 2.1a8 8 0 0 1 .45 2.73q0 1.75-.28 3.42-.27 1.66-.62 3.27a88 88 0 0 0-.6 3.24 19 19 0 0 0-.29 3.24 5.7 5.7 0 0 0 1.37 3.75 6 6 0 0 0 3.16 1.88 5.6 5.6 0 0 0-3.16 1.86 5.7 5.7 0 0 0-1.37 3.74q0 1.63.28 3.25.29 1.61.61 3.24.35 1.64.62 3.3.28 1.65.28 3.38a8 8 0 0 1-.45 2.74q-.44 1.23-1.23 2.1a5 5 0 0 1-1.88 1.31q-1.09.47-2.41.47h-1.02a1 1 0 0 0-.52.18.6.6 0 0 0-.25.52v1.3h1.7q2.03 0 3.64-.67a7.7 7.7 0 0 0 4.43-4.64q.58-1.6.58-3.47 0-1.72-.3-3.34-.29-1.62-.62-3.22-.34-1.6-.63-3.2-.3-1.6-.3-3.29 0-1.02.35-1.86" transform="translate(-50 -50)"/></g></g><path fill="transparent" stroke="transparent" d="M951.5 0h97v82h-97z"/></g></svg>